<?xml version="1.0" standalone="no"?>
<!DOCTYPE svg PUBLIC "-//W3C//DTD SVG 20010904//EN"
 "http://www.w3.org/TR/2001/REC-SVG-20010904/DTD/svg10.dtd">
<svg version="1.0" xmlns="http://www.w3.org/2000/svg"
 width="512.000000pt" height="512.000000pt" viewBox="0 0 512.000000 512.000000"
 preserveAspectRatio="xMidYMid meet">
<metadata>
Created by potrace 1.11, written by Peter Selinger 2001-2013
</metadata>
<g transform="translate(0.000000,512.000000) scale(0.100000,-0.100000)"
fill="#000000" stroke="none">
<path d="M2490 4821 c-6 -12 -10 -124 -10 -295 0 -265 -1 -276 -20 -286 -23
-12 -54 0 -64 26 -3 8 -6 125 -6 259 0 231 -1 245 -19 255 -26 14 -29 13 -40
-9 -17 -30 -63 -451 -68 -614 l-5 -147 33 -56 c25 -40 48 -63 87 -85 l52 -30
0 -138 0 -137 -31 -23 c-16 -12 -35 -33 -41 -47 -17 -37 -27 -29 -21 16 5 32
1 45 -15 63 -48 51 -53 107 -17 179 29 58 29 58 11 58 -8 0 -26 15 -40 33 -14
17 -32 39 -40 47 -8 8 -22 32 -32 52 -13 27 -21 35 -29 28 -8 -7 -20 -6 -36 3
-48 26 -69 42 -69 54 0 7 -9 17 -21 23 -28 15 -19 21 54 40 70 17 69 15 81
161 l7 76 -53 -8 c-29 -5 -75 -17 -103 -28 -27 -11 -66 -22 -85 -25 -36 -7
-273 -118 -300 -142 -8 -7 -43 -26 -77 -43 -34 -17 -71 -43 -83 -58 -11 -15
-35 -35 -51 -45 -17 -10 -47 -34 -66 -53 -20 -19 -42 -35 -50 -35 -7 0 -13 -4
-13 -10 0 -5 -41 -51 -90 -101 -50 -51 -93 -103 -96 -116 -4 -12 -10 -23 -14
-23 -4 0 -23 -24 -41 -52 -18 -29 -50 -76 -71 -104 -21 -28 -38 -57 -38 -65 0
-9 -7 -24 -15 -35 -8 -10 -15 -25 -15 -32 0 -8 -9 -27 -20 -42 -11 -16 -23
-43 -27 -61 -3 -18 -12 -45 -20 -59 -7 -14 -13 -33 -13 -42 0 -10 -4 -18 -8
-18 -10 0 -40 -93 -52 -163 -5 -28 -16 -92 -26 -142 -11 -61 -17 -145 -17
-260 -1 -144 3 -193 26 -315 32 -174 40 -203 78 -285 16 -35 29 -72 29 -82 0
-10 9 -32 19 -50 11 -17 30 -55 42 -85 22 -52 70 -129 96 -156 7 -7 13 -19 13
-26 0 -7 14 -26 30 -43 17 -17 35 -45 41 -62 6 -17 16 -31 22 -31 7 0 24 -17
40 -38 31 -42 125 -138 175 -178 37 -30 40 -40 11 -49 -12 -4 -39 -25 -61 -46
-22 -21 -44 -39 -48 -39 -16 0 -134 -84 -172 -121 -55 -55 -46 -102 20 -102
29 0 189 104 199 129 3 8 9 14 14 14 5 0 36 18 68 40 32 22 63 40 68 40 5 0
20 11 33 25 13 14 55 47 92 72 37 26 68 50 68 54 0 4 11 10 25 13 14 4 34 15
45 26 11 11 45 37 77 59 87 60 179 176 195 246 37 159 38 137 -25 390 -35 142
-13 318 58 472 19 39 39 90 45 112 6 22 28 76 50 120 22 45 40 84 40 89 0 4
23 52 50 107 28 55 50 109 50 120 0 11 6 29 14 40 7 11 26 49 40 85 15 36 44
101 65 145 21 44 47 100 56 125 9 25 21 55 26 68 5 12 15 22 24 22 12 0 15
-14 15 -72 0 -58 -5 -83 -25 -122 -14 -27 -25 -57 -25 -66 0 -20 -71 -223 -92
-265 -9 -17 -23 -58 -32 -92 -8 -35 -26 -84 -39 -110 -14 -27 -28 -70 -31 -98
-4 -27 -14 -61 -23 -74 -8 -13 -28 -62 -44 -109 -24 -67 -27 -87 -17 -93 18
-12 23 -11 47 9 14 11 26 40 35 87 8 39 28 102 45 140 17 39 31 79 31 90 0 11
8 36 19 55 10 19 37 94 61 165 24 72 53 156 64 188 l21 58 3 -133 c3 -121 0
-141 -24 -218 -14 -47 -30 -92 -34 -100 -4 -9 -11 -31 -14 -50 -4 -19 -27 -91
-51 -160 -24 -69 -53 -156 -65 -195 -20 -66 -20 -70 -4 -82 15 -11 20 -11 30
-1 11 12 54 125 75 198 98 337 88 373 89 -331 l0 -616 -25 -79 c-29 -88 -52
-139 -77 -167 -17 -20 -40 -48 -109 -132 -22 -27 -58 -70 -79 -95 -114 -132
-149 -173 -185 -221 -22 -29 -64 -77 -92 -107 -29 -29 -53 -59 -53 -66 0 -7
-9 -21 -20 -31 -39 -36 -15 -95 38 -95 28 0 40 12 118 117 48 65 99 130 113
144 14 14 31 33 36 43 9 15 16 16 57 7 141 -32 411 -43 543 -21 33 5 76 12 95
15 33 5 37 3 75 -50 22 -30 50 -62 63 -70 12 -9 22 -22 22 -30 0 -9 18 -35 40
-59 22 -24 40 -48 40 -53 0 -32 89 -60 105 -32 13 20 7 77 -11 105 -11 16 -54
65 -96 109 -43 43 -78 85 -78 92 0 7 -26 39 -57 71 -32 32 -74 80 -93 107 -19
27 -52 66 -72 86 -21 21 -38 42 -38 46 0 5 -17 26 -37 47 -43 44 -93 119 -115
173 -48 118 -48 112 -48 764 0 575 5 669 26 546 3 -21 17 -65 30 -98 13 -32
24 -68 24 -80 0 -11 6 -35 14 -52 7 -18 23 -64 35 -103 22 -72 41 -101 61 -89
21 13 9 88 -29 188 -22 56 -49 136 -61 177 -12 41 -28 95 -37 120 -52 151 -56
175 -60 320 -4 131 -3 143 11 125 9 -11 16 -31 16 -43 0 -13 7 -38 15 -55 8
-18 32 -86 53 -152 22 -66 54 -152 71 -192 17 -40 31 -79 31 -87 0 -8 16 -52
35 -97 19 -46 35 -93 35 -104 0 -12 6 -29 13 -39 11 -15 17 -16 35 -7 l21 11
-25 60 c-13 34 -31 89 -38 123 -8 34 -28 95 -45 136 -17 41 -31 80 -31 88 0 9
-20 62 -45 119 -25 56 -45 109 -45 116 -1 7 -17 58 -36 113 -20 55 -38 114
-41 130 -3 17 -12 37 -20 46 -17 20 -15 150 3 156 5 2 23 -25 38 -59 15 -35
34 -76 42 -91 7 -16 14 -33 14 -38 0 -15 63 -143 77 -157 7 -7 13 -22 13 -33
0 -11 15 -50 34 -87 19 -37 39 -88 46 -112 6 -25 26 -72 45 -105 18 -33 38
-78 45 -100 7 -22 28 -67 47 -99 19 -33 38 -78 42 -100 5 -23 20 -66 34 -96
43 -94 51 -137 51 -280 0 -124 -3 -144 -32 -236 -38 -120 -41 -198 -12 -281
24 -67 80 -163 95 -163 7 0 26 -20 44 -45 18 -25 36 -45 41 -45 5 0 38 -21 74
-47 124 -90 149 -108 178 -124 16 -8 33 -19 36 -25 11 -15 118 -94 128 -94 5
0 22 -11 38 -25 16 -14 34 -25 40 -25 6 0 28 -18 49 -40 21 -23 48 -45 60 -50
12 -6 33 -19 47 -29 40 -32 75 -36 99 -12 12 12 21 27 21 34 0 22 -53 85 -80
95 -14 6 -34 18 -45 29 -11 10 -39 28 -62 39 -23 10 -43 25 -43 32 0 6 -4 12
-8 12 -4 0 -23 13 -42 28 l-34 29 45 39 c78 68 229 228 229 242 0 4 16 25 35
46 19 22 35 45 35 50 0 6 18 33 40 60 36 44 80 125 80 148 0 5 11 26 25 46 14
20 25 43 25 52 0 8 18 55 40 104 22 49 42 106 46 125 3 20 17 88 31 151 24
110 25 126 20 365 -3 190 -8 265 -21 310 -9 33 -20 86 -25 117 -5 32 -19 77
-30 100 -37 79 -61 140 -61 157 0 9 -4 21 -9 26 -13 14 -71 131 -71 145 0 12
-2 14 -55 75 -19 22 -35 47 -35 56 0 9 -16 33 -35 53 -19 21 -35 41 -35 45 0
4 -19 27 -43 52 -24 24 -48 51 -53 59 -5 8 -56 56 -114 107 -58 51 -123 108
-145 127 -22 20 -65 49 -95 64 -30 16 -86 46 -125 69 -103 59 -225 113 -255
113 -10 0 -49 11 -87 24 -37 13 -97 27 -132 31 -63 7 -64 7 -58 -16 3 -13 9
-60 13 -104 4 -44 11 -85 16 -92 5 -6 32 -16 61 -23 29 -6 58 -13 64 -15 23
-7 1 -36 -59 -77 -44 -29 -63 -37 -71 -29 -19 19 -26 13 -39 -31 -8 -26 -31
-62 -60 -92 -38 -39 -45 -52 -38 -70 29 -75 33 -105 20 -151 -7 -25 -21 -50
-31 -55 -13 -7 -19 -24 -21 -58 l-3 -47 -25 42 c-14 24 -30 43 -36 43 -7 0
-14 47 -19 136 l-7 137 26 23 c14 13 40 32 58 42 38 21 84 104 93 167 4 22 -5
141 -18 265 -14 124 -28 272 -31 329 -4 85 -9 108 -24 124 -16 16 -23 17 -41
8 -21 -11 -21 -17 -21 -271 0 -246 -1 -260 -19 -270 -21 -10 -51 -4 -63 14 -4
6 -8 133 -8 283 0 149 -3 278 -6 287 -9 24 -71 21 -84 -3z m-664 -878 c-3 -21
-6 -59 -6 -85 l0 -48 -62 1 c-35 1 -92 4 -128 8 l-65 6 47 33 c26 17 50 32 54
32 4 0 21 11 38 24 34 25 106 65 120 66 5 0 6 -17 2 -37z m1476 5 c29 -18 59
-38 66 -45 7 -7 21 -13 30 -13 9 -1 34 -16 54 -34 l38 -33 -83 -6 c-45 -4 -98
-7 -117 -7 l-36 0 -13 72 c-7 40 -16 78 -18 85 -9 22 25 14 79 -19z m-1149
-281 c53 -51 79 -101 67 -133 -13 -34 -76 -65 -124 -62 -36 3 -43 8 -58 38
-19 36 -25 173 -12 239 l7 32 36 -35 c20 -19 57 -55 84 -79z m886 -37 c0 -30
-5 -77 -12 -105 l-13 -50 -47 -3 c-35 -2 -58 3 -87 19 -38 21 -40 25 -40 69 0
42 4 50 58 103 32 31 63 57 69 57 6 0 22 13 35 28 l23 29 7 -46 c3 -25 7 -71
7 -101z m-1309 -41 c102 -14 158 -36 204 -82 34 -34 38 -42 33 -74 -9 -56 -22
-60 -48 -14 -35 63 -98 89 -238 97 l-114 7 5 -89 c7 -114 37 -191 94 -249 24
-23 40 -45 37 -49 -13 -13 -89 -5 -109 12 -29 24 -69 99 -82 152 -6 25 -13
105 -15 178 l-4 132 81 -6 c45 -3 115 -10 156 -15z m1844 -26 c-3 -27 -9 -93
-14 -148 -14 -147 -28 -192 -76 -242 -35 -37 -46 -43 -82 -43 -51 0 -53 12 -7
55 51 49 85 147 88 258 l2 72 -105 -2 c-58 -2 -118 -8 -135 -15 -44 -17 -94
-56 -115 -90 -21 -35 -31 -25 -32 33 -1 91 101 141 323 158 177 14 159 18 153
-36z m292 -146 c7 -22 61 -105 83 -127 13 -13 12 -15 -5 -18 -10 -1 -50 4 -89
11 l-70 13 -2 115 -3 114 40 -45 c22 -24 43 -53 46 -63z m-2585 41 c0 -29 4
-77 8 -105 4 -29 6 -53 5 -53 -1 0 -39 -7 -84 -16 -45 -8 -84 -13 -87 -10 -9
9 8 46 53 110 24 36 44 68 44 71 0 4 8 17 18 30 28 40 42 31 43 -27z m451 -19
c97 -20 166 -79 141 -122 -19 -35 -75 -87 -98 -93 -28 -7 -73 17 -82 44 -3 9
-11 31 -18 47 -8 17 -17 54 -21 83 -8 59 -8 59 78 41z m1670 -49 c-6 -104 -64
-184 -121 -165 -27 8 -91 84 -91 107 0 47 55 92 132 107 79 16 83 13 80 -49z
m-1138 -66 c11 -4 13 -10 8 -18 -5 -6 -13 -28 -16 -49 -7 -37 -42 -116 -57
-127 -3 -3 -12 -22 -20 -43 l-13 -37 -33 32 c-39 38 -38 53 9 154 39 83 72
107 122 88z m601 -12 c32 -27 54 -67 75 -134 l19 -61 -32 -33 -31 -33 -27 49
c-14 27 -29 64 -33 83 -4 19 -17 56 -31 83 -18 36 -21 50 -12 56 20 13 51 8
72 -10z m-1776 -306 c23 -33 41 -65 41 -72 0 -7 -15 -24 -32 -39 -18 -15 -55
-46 -82 -71 -27 -24 -51 -42 -54 -40 -6 7 17 113 46 208 15 48 30 84 33 80 4
-4 25 -34 48 -66z m513 49 c38 -28 43 -59 18 -109 -24 -45 -56 -75 -82 -76
-24 0 -110 71 -191 158 l-38 41 33 4 c18 3 78 4 133 3 83 -1 105 -4 127 -21z
m2135 11 c4 -4 -2 -15 -14 -23 -13 -9 -23 -21 -23 -28 0 -7 -17 -27 -37 -45
-21 -17 -52 -44 -70 -60 -44 -41 -78 -47 -111 -23 -38 28 -53 61 -50 113 3 40
7 47 38 63 29 15 55 17 147 15 61 -2 115 -7 120 -12z m303 -17 c0 -11 11 -59
24 -107 29 -103 38 -162 26 -162 -5 0 -23 18 -41 40 -18 22 -39 42 -48 45 -25
8 -76 76 -63 84 6 4 17 20 24 37 16 38 61 93 71 87 4 -2 7 -13 7 -24z m-1972
-66 c2 -12 10 -27 18 -33 18 -16 18 -41 -1 -66 -8 -10 -15 -32 -15 -49 -1 -20
-12 3 -35 75 -19 58 -35 108 -35 113 0 18 65 -21 68 -40z m992 33 c0 -2 -9
-25 -20 -51 -11 -26 -20 -69 -20 -95 0 -27 -4 -51 -8 -54 -10 -6 -52 76 -52
101 0 24 63 102 83 103 9 0 17 -2 17 -4z m-1142 -134 c12 -42 28 -101 34 -131
12 -52 11 -55 -12 -70 -13 -9 -35 -27 -48 -40 -24 -24 -25 -24 -39 -5 -30 40
-86 170 -91 210 -4 37 -1 43 29 65 28 20 80 45 99 48 3 1 15 -34 28 -77z
m1298 62 c59 -25 84 -53 78 -89 -10 -56 -37 -155 -43 -155 -4 0 -15 -17 -26
-37 -10 -21 -20 -40 -22 -42 -1 -2 -15 6 -30 18 -15 12 -39 30 -53 40 -24 19
-24 20 -12 82 22 108 53 199 67 199 1 0 20 -7 41 -16z m-1706 -164 c38 -37 39
-53 4 -40 -14 6 -37 10 -51 10 -35 0 -139 -48 -173 -79 -15 -14 -46 -44 -69
-66 l-42 -40 63 -58 c100 -94 204 -137 276 -113 31 10 28 -5 -9 -40 -67 -64
-195 -22 -334 112 -44 42 -88 80 -98 86 -16 8 -13 14 31 56 159 152 239 202
323 202 40 0 53 -5 79 -30z m2208 10 c29 -11 67 -33 85 -49 18 -15 59 -52 92
-81 33 -30 69 -62 81 -73 l21 -20 -69 -63 c-185 -170 -282 -214 -358 -162 -19
13 -36 31 -38 40 -3 15 1 16 29 8 41 -12 100 2 151 36 21 13 40 24 42 24 12 0
116 113 116 125 0 8 -12 22 -27 32 -14 10 -39 32 -56 48 -27 28 -50 43 -117
77 -14 7 -53 12 -87 12 -57 -1 -61 1 -52 17 26 49 103 61 187 29z m-2204 -146
c21 -22 26 -36 26 -76 0 -41 -5 -54 -29 -78 -25 -25 -32 -28 -63 -21 -33 8
-125 63 -139 84 -13 19 4 46 39 63 21 9 39 20 42 24 6 9 60 28 81 29 9 1 28
-11 43 -25z m2143 1 c29 -13 68 -36 87 -51 l34 -28 -51 -35 c-29 -20 -69 -44
-90 -53 -34 -16 -41 -16 -72 -4 -29 13 -34 20 -41 61 -8 60 5 106 36 122 33
17 37 17 97 -12z m-1763 -156 c10 -15 12 -28 5 -46 -16 -43 -58 -236 -53 -245
12 -19 -24 -5 -55 22 -32 27 -33 31 -27 77 3 26 22 80 42 118 53 104 62 111
88 74z m1316 8 c0 -7 8 -22 19 -33 32 -35 39 -56 66 -190 3 -13 -6 -32 -26
-52 -45 -46 -59 -42 -59 16 0 53 -34 198 -51 219 -9 10 -6 18 12 33 28 23 39
25 39 7z m-2126 -247 l48 -47 -16 -35 c-10 -20 -28 -46 -42 -59 -13 -12 -24
-28 -24 -36 0 -7 -3 -13 -8 -13 -12 0 -80 239 -82 289 0 14 40 -18 124 -99z
m3001 31 c-8 -40 -21 -93 -29 -119 -8 -26 -18 -60 -21 -77 l-7 -30 -25 30
c-13 17 -31 45 -39 63 -8 18 -21 36 -30 39 -11 4 9 28 72 89 48 46 89 82 91
80 2 -2 -3 -35 -12 -75z m-2502 -45 c58 -63 68 -100 37 -139 -34 -44 -129 -57
-265 -38 l-50 7 41 39 c23 22 44 48 47 58 4 9 17 21 30 26 13 5 39 23 58 40
40 37 72 39 102 7z m2009 -16 c15 -16 33 -30 40 -31 17 0 113 -118 104 -126
-13 -13 -230 -8 -263 5 -85 36 -30 205 61 188 17 -3 43 -19 58 -36z m-1890
-225 c2 -3 -16 -26 -42 -53 -58 -61 -84 -135 -84 -247 l-1 -80 105 3 c105 3
183 25 202 55 4 6 10 8 14 4 9 -8 -16 -89 -31 -100 -23 -16 -94 -29 -229 -40
l-143 -12 4 135 c5 165 27 252 77 304 29 31 40 36 78 36 25 0 47 -2 50 -5z
m1781 -30 c49 -45 63 -96 81 -290 8 -82 14 -150 13 -151 -10 -5 -313 28 -342
38 -34 11 -40 19 -56 66 -10 28 -16 52 -13 52 2 0 22 -12 45 -27 33 -22 58
-28 144 -36 57 -5 112 -6 121 -3 15 6 16 17 10 85 -9 106 -44 207 -90 252 -20
20 -36 39 -36 43 0 3 19 6 43 6 34 0 49 -7 80 -35z m-1646 -100 c26 -28 43
-55 43 -69 0 -36 -60 -81 -128 -95 -31 -7 -68 -15 -81 -18 -24 -6 -24 -5 -18
49 13 106 57 178 110 178 23 0 41 -11 74 -45z m1498 39 c26 -10 63 -94 66
-154 2 -31 1 -57 -4 -59 -17 -8 -108 9 -144 28 -74 37 -80 98 -17 158 34 32
64 40 99 27z m-2115 -52 c41 -4 75 -11 74 -17 -4 -95 -18 -215 -25 -213 -4 2
-37 46 -72 99 -64 97 -90 153 -65 144 7 -3 47 -8 88 -13z m2730 11 c0 -8 -51
-85 -61 -93 -4 -3 -14 -21 -22 -40 -9 -19 -32 -53 -51 -75 l-36 -40 0 118 0
117 38 1 c20 0 55 4 77 8 55 12 55 12 55 4z m-1412 -631 c11 10 18 7 33 -12
10 -14 19 -31 19 -38 0 -15 -51 -91 -61 -92 -3 0 -18 19 -33 42 -27 41 -27 42
-9 75 11 21 21 29 27 23 6 -6 15 -5 24 2z"/>
<path d="M1708 3363 c10 -16 21 -36 25 -45 15 -42 78 -57 91 -22 10 26 -7 46
-58 70 -69 32 -82 31 -58 -3z"/>
<path d="M3315 3379 c-30 -8 -85 -53 -85 -67 0 -15 24 -32 47 -32 15 0 32 14
53 44 44 65 42 72 -15 55z"/>
<path d="M1420 2590 c-30 -11 -57 -20 -60 -20 -18 -3 68 -30 101 -32 47 -2 62
14 46 49 -12 27 -15 27 -87 3z"/>
<path d="M3556 2589 c-34 -49 20 -66 112 -37 40 12 34 20 -35 42 -64 20 -59
20 -77 -5z"/>
<path d="M1744 1833 c-9 -16 -25 -40 -35 -55 -22 -32 -8 -49 20 -24 10 9 26
16 37 16 18 0 64 33 64 46 0 3 -5 14 -10 25 -16 29 -56 24 -76 -8z"/>
<path d="M3248 1849 c-10 -5 -18 -16 -18 -23 0 -16 42 -56 59 -56 6 0 25 -7
41 -15 39 -20 40 -3 4 51 -38 56 -52 63 -86 43z"/>
</g>
</svg>
